<svg width="24" height="24" viewBox="0 0 24 24" fill="none" xmlns="http://www.w3.org/2000/svg">
<path fill-rule="evenodd" clip-rule="evenodd" d="M18.75 18.927C19.2105 18.5145 19.5 17.916 19.5 17.25V10.4655C19.5001 10.1209 19.421 9.78082 19.2689 9.47159C19.1167 9.16236 18.8956 8.89221 18.6225 8.68199L13.3725 4.64399C12.9791 4.34112 12.4965 4.17689 12 4.17689C11.5035 4.17689 11.0209 4.34112 10.6275 4.64399L5.3775 8.68199C5.10421 8.89237 4.88295 9.16275 4.7308 9.47226C4.57864 9.78177 4.49968 10.1221 4.5 10.467V17.25C4.49921 17.5448 4.55652 17.8369 4.66866 18.1095C4.7808 18.3822 4.94556 18.6301 5.15354 18.839C5.36151 19.048 5.60863 19.2139 5.88075 19.3273C6.15288 19.4407 6.44469 19.4994 6.7395 19.5H7.5V14.25C7.5 13.4543 7.81607 12.6913 8.37868 12.1287C8.94129 11.5661 9.70435 11.25 10.5 11.25H13.5C14.2956 11.25 15.0587 11.5661 15.6213 12.1287C16.1839 12.6913 16.5 13.4543 16.5 14.25V19.5H17.2605C17.832 19.497 18.3555 19.281 18.75 18.927ZM21.75 17.25C21.75 18.4435 21.2759 19.5881 20.432 20.432C19.5881 21.2759 18.4435 21.75 17.25 21.75H6.75C5.55653 21.75 4.41193 21.2759 3.56802 20.432C2.72411 19.5881 2.25 18.4435 2.25 17.25V10.4655C2.25005 9.77648 2.40831 9.09669 2.71259 8.47851C3.01686 7.86033 3.45903 7.32028 4.005 6.89999L9.255 2.86199C10.0419 2.25625 11.007 1.9278 12 1.9278C12.993 1.9278 13.9581 2.25625 14.745 2.86199L19.995 6.89999C20.5412 7.32044 20.9835 7.86073 21.2877 8.47919C21.592 9.09764 21.7502 9.77773 21.75 10.467V17.25ZM14.25 14.25C14.25 14.0511 14.171 13.8603 14.0303 13.7197C13.8897 13.579 13.6989 13.5 13.5 13.5H10.5C10.3011 13.5 10.1103 13.579 9.96967 13.7197C9.82902 13.8603 9.75 14.0511 9.75 14.25V19.5H14.25V14.25Z" fill="white"/>
</svg>
