<svg width="35" height="35" viewBox="0 0 35 35" fill="none" xmlns="http://www.w3.org/2000/svg">
<path d="M27.7082 2.91675H7.2915C6.13118 2.91675 5.01838 3.37768 4.19791 4.19816C3.37744 5.01863 2.9165 6.13143 2.9165 7.29175V27.7084C2.9165 28.8687 3.37744 29.9815 4.19791 30.802C5.01838 31.6225 6.13118 32.0834 7.2915 32.0834H27.7082C27.948 32.0801 28.1872 32.0557 28.4228 32.0105L28.8603 31.9084H28.9623H29.0353L29.5748 31.7042L29.7644 31.6022C29.9103 31.5147 30.0707 31.4417 30.2165 31.3397C30.4112 31.1964 30.5964 31.0405 30.7707 30.873L30.8728 30.7417C31.0159 30.5967 31.1476 30.4406 31.2665 30.2751L31.3978 30.0855C31.4996 29.9231 31.5874 29.7524 31.6603 29.5751C31.7003 29.5051 31.7344 29.4319 31.7623 29.3563C31.8353 29.1813 31.879 28.9917 31.9373 28.8022V28.5834C32.02 28.2985 32.069 28.0048 32.0832 27.7084V7.29175C32.0832 6.13143 31.6222 5.01863 30.8018 4.19816C29.9813 3.37768 28.8685 2.91675 27.7082 2.91675ZM7.2915 29.1667C6.90473 29.1667 6.5338 29.0131 6.26031 28.7396C5.98682 28.4661 5.83317 28.0952 5.83317 27.7084V21.423L10.6311 16.6105C10.7667 16.4738 10.928 16.3653 11.1057 16.2913C11.2834 16.2172 11.474 16.1791 11.6665 16.1791C11.859 16.1791 12.0496 16.2172 12.2273 16.2913C12.4051 16.3653 12.5663 16.4738 12.7019 16.6105L25.2436 29.1667H7.2915ZM29.1665 27.7084C29.1651 27.8882 29.1305 28.0662 29.0644 28.2334C29.0311 28.3045 28.9921 28.3728 28.9478 28.4376C28.9087 28.4993 28.8648 28.5578 28.8165 28.6126L21.0144 20.8105L22.2978 19.5272C22.4333 19.3905 22.5946 19.282 22.7723 19.2079C22.95 19.1339 23.1407 19.0958 23.3332 19.0958C23.5257 19.0958 23.7163 19.1339 23.894 19.2079C24.0717 19.282 24.233 19.3905 24.3686 19.5272L29.1665 24.3397V27.7084ZM29.1665 20.2126L26.4248 17.5001C25.5903 16.7082 24.4836 16.2667 23.3332 16.2667C22.1827 16.2667 21.0761 16.7082 20.2415 17.5001L18.9582 18.7834L14.7582 14.5834C13.9236 13.7915 12.817 13.3501 11.6665 13.3501C10.516 13.3501 9.40941 13.7915 8.57484 14.5834L5.83317 17.2959V7.29175C5.83317 6.90497 5.98682 6.53404 6.26031 6.26055C6.5338 5.98706 6.90473 5.83341 7.2915 5.83341H27.7082C28.0949 5.83341 28.4659 5.98706 28.7394 6.26055C29.0129 6.53404 29.1665 6.90497 29.1665 7.29175V20.2126ZM19.6873 8.75008C19.2547 8.75008 18.8318 8.87838 18.472 9.11874C18.1123 9.35911 17.8319 9.70075 17.6663 10.1005C17.5008 10.5002 17.4575 10.94 17.5419 11.3643C17.6263 11.7887 17.8346 12.1784 18.1405 12.4844C18.4465 12.7903 18.8362 12.9986 19.2606 13.083C19.6849 13.1675 20.1247 13.1241 20.5245 12.9586C20.9242 12.793 21.2658 12.5126 21.5062 12.1529C21.7465 11.7932 21.8748 11.3702 21.8748 10.9376C21.8748 10.3574 21.6444 9.80102 21.2341 9.39078C20.8239 8.98055 20.2675 8.75008 19.6873 8.75008Z" fill="white"/>
</svg>
