<svg width="232" height="56" viewBox="0 0 232 56" fill="none" xmlns="http://www.w3.org/2000/svg">
<path d="M34.8823 44.4297V32.1671C34.8823 31.1601 34.5859 30.3751 33.9932 29.8124C33.4005 29.22 32.6447 28.9238 31.726 28.9238C31.1036 28.9238 30.5405 29.0571 30.0367 29.3236C29.5625 29.5902 29.1921 29.9605 28.9253 30.4344C28.6586 30.9083 28.5252 31.4859 28.5252 32.1671L25.5023 30.7454C25.5023 28.9978 25.8876 27.502 26.6581 26.258C27.4287 24.9843 28.4808 24.0069 29.8144 23.3256C31.1777 22.6147 32.7188 22.2593 34.4377 22.2593C36.0085 22.2593 37.4014 22.6295 38.6165 23.37C39.8613 24.0809 40.8393 25.0436 41.5506 26.258C42.2618 27.4724 42.6175 28.8497 42.6175 30.3899V44.4297H34.8823ZM20.79 44.4297V22.7036H28.5252V44.4297H20.79ZM54.9765 45.0518C53.6428 45.0518 52.324 44.874 51.02 44.5186C49.7456 44.1632 48.5453 43.6892 47.4191 43.0969C46.3225 42.4748 45.3889 41.764 44.6183 40.9642L48.8417 36.6545C49.5529 37.395 50.3976 37.9726 51.3756 38.3873C52.3833 38.802 53.4502 39.0093 54.5764 39.0093C55.2284 39.0093 55.7174 38.9205 56.0434 38.7427C56.399 38.565 56.5769 38.3132 56.5769 37.9874C56.5769 37.5135 56.3249 37.1581 55.8211 36.9211C55.3469 36.6545 54.7097 36.4324 53.9095 36.2547C53.139 36.0473 52.324 35.8104 51.4645 35.5438C50.605 35.2476 49.7752 34.8625 48.975 34.3886C48.1748 33.9147 47.5228 33.2483 47.019 32.3893C46.5448 31.5303 46.3077 30.4344 46.3077 29.1015C46.3077 27.7093 46.6782 26.4949 47.4191 25.4582C48.1897 24.3919 49.2566 23.5626 50.6199 22.9702C51.9832 22.3482 53.5835 22.0371 55.421 22.0371C57.2881 22.0371 59.0663 22.363 60.7556 23.0146C62.4449 23.6366 63.8082 24.5845 64.8455 25.8581L60.5778 30.1678C59.8665 29.3681 59.0812 28.8201 58.2217 28.5239C57.3622 28.1981 56.5768 28.0352 55.8656 28.0352C55.1839 28.0352 54.6949 28.1388 54.3985 28.3462C54.1022 28.5239 53.954 28.7757 53.954 29.1015C53.954 29.4865 54.1911 29.7975 54.6653 30.0345C55.1691 30.2715 55.8063 30.4936 56.5769 30.701C57.377 30.8787 58.1921 31.1156 59.0219 31.4118C59.8813 31.708 60.6964 32.1227 61.4669 32.6559C62.2671 33.1594 62.9043 33.8407 63.3785 34.6996C63.8823 35.5586 64.1342 36.6693 64.1342 38.0319C64.1342 40.1941 63.3044 41.9121 61.6447 43.1857C59.9851 44.4297 57.7623 45.0518 54.9765 45.0518ZM80.5692 44.874C79.1762 44.874 77.887 44.6223 76.7016 44.1187C75.5161 43.6152 74.5381 42.9339 73.7675 42.075C72.997 41.1864 72.5228 40.1645 72.345 39.0093V28.435C72.5228 27.2799 72.997 26.2432 73.7675 25.325C74.5677 24.3771 75.5457 23.6366 76.7016 23.1035C77.887 22.5407 79.1762 22.2593 80.5692 22.2593C82.6734 22.2593 84.5257 22.748 86.1261 23.7255C87.7264 24.6733 88.9712 26.0062 89.8603 27.7242C90.779 29.4421 91.2384 31.397 91.2384 33.5889C91.2384 35.7511 90.779 37.6912 89.8603 39.4092C88.9712 41.0975 87.7264 42.4304 86.1261 43.4079C84.5257 44.3853 82.6734 44.874 80.5692 44.874ZM67.6327 53.6267V22.7036H75.3679V28.1685L74.0787 33.4112L75.1901 38.6983V53.6267H67.6327ZM79.1022 37.9874C79.9616 37.9874 80.7174 37.7949 81.3694 37.4098C82.0214 37.0248 82.5252 36.5064 82.8808 35.8548C83.2365 35.1735 83.4143 34.4034 83.4143 33.5445C83.4143 32.6855 83.2365 31.9302 82.8808 31.2785C82.5252 30.6269 82.0214 30.1086 81.3694 29.7235C80.7174 29.3384 79.9764 29.1459 79.1466 29.1459C78.3464 29.1459 77.6203 29.3384 76.9683 29.7235C76.3163 30.0789 75.8125 30.5973 75.4568 31.2785C75.1012 31.9302 74.9234 32.6855 74.9234 33.5445C74.9234 34.4034 75.1012 35.1735 75.4568 35.8548C75.8125 36.5064 76.3015 37.0248 76.9239 37.4098C77.5759 37.7949 78.302 37.9874 79.1022 37.9874ZM94.3743 44.4297V22.7036H102.154V44.4297H94.3743ZM98.2419 20.1711C97.0861 20.1711 96.1229 19.786 95.3523 19.0159C94.5818 18.2162 94.1965 17.2239 94.1965 16.0391C94.1965 14.884 94.5818 13.9065 95.3523 13.1068C96.1229 12.307 97.0861 11.9072 98.2419 11.9072C99.457 11.9072 100.435 12.307 101.176 13.1068C101.947 13.9065 102.332 14.884 102.332 16.0391C102.332 17.2239 101.947 18.2162 101.176 19.0159C100.435 19.786 99.457 20.1711 98.2419 20.1711ZM106.662 44.4297V22.7036H114.397V44.4297H106.662ZM114.397 32.6114L110.929 29.6791C111.789 27.2206 112.93 25.3694 114.352 24.1253C115.775 22.8813 117.627 22.2593 119.909 22.2593C120.946 22.2593 121.836 22.3926 122.576 22.6592C123.347 22.9257 123.999 23.3404 124.532 23.9032L120.043 29.9012C119.805 29.6346 119.465 29.4273 119.02 29.2792C118.605 29.1015 118.131 29.0126 117.597 29.0126C116.59 29.0126 115.804 29.3236 115.241 29.9456C114.678 30.538 114.397 31.4266 114.397 32.6114ZM136.439 44.9185C134.009 44.9185 131.861 44.4446 129.993 43.4967C128.126 42.5193 126.659 41.1716 125.592 39.4536C124.526 37.7357 123.992 35.7659 123.992 33.5445C123.992 31.3526 124.511 29.4125 125.548 27.7242C126.585 26.0062 127.993 24.6585 129.771 23.681C131.579 22.674 133.609 22.1704 135.862 22.1704C138.055 22.1704 139.996 22.6444 141.685 23.5922C143.404 24.5104 144.738 25.7989 145.686 27.4576C146.664 29.0867 147.153 30.9527 147.153 33.0557C147.153 33.5 147.124 33.9591 147.064 34.4331C147.035 34.8773 146.946 35.3957 146.798 35.9881L127.637 36.077V31.1008L143.73 30.9675L140.263 33.1446C140.233 31.9302 140.055 30.9379 139.729 30.1678C139.403 29.3681 138.929 28.7609 138.307 28.3462C137.684 27.9315 136.899 27.7242 135.95 27.7242C134.972 27.7242 134.128 27.9611 133.417 28.435C132.705 28.9089 132.157 29.5754 131.772 30.4344C131.386 31.2933 131.194 32.33 131.194 33.5445C131.194 34.7885 131.401 35.8548 131.816 36.7434C132.231 37.6024 132.824 38.254 133.594 38.6983C134.365 39.1426 135.313 39.3648 136.439 39.3648C137.506 39.3648 138.44 39.187 139.24 38.8316C140.07 38.4762 140.811 37.9282 141.463 37.1877L145.508 41.2308C144.441 42.4452 143.137 43.3634 141.596 43.9854C140.085 44.6075 138.366 44.9185 136.439 44.9185ZM150.608 44.4297V12.929H158.566V44.4297H150.608ZM169.902 44.4297V12.929H177.859V44.4297H169.902ZM155.143 31.634V24.9695H172.791V31.634H155.143ZM192.896 44.9185C190.851 44.9185 189.028 44.5186 187.428 43.7189C185.857 42.8895 184.613 41.7491 183.694 40.2978C182.805 38.8168 182.36 37.1433 182.36 35.2772V22.7036H190.095V35.2772C190.095 35.8696 190.214 36.388 190.451 36.8323C190.688 37.2766 191.014 37.6172 191.429 37.8541C191.844 38.0911 192.333 38.2096 192.896 38.2096C193.726 38.2096 194.393 37.943 194.897 37.4098C195.43 36.8767 195.697 36.1658 195.697 35.2772V22.7036H203.432V35.2772C203.432 37.1729 202.987 38.8464 202.098 40.2978C201.209 41.7491 199.964 42.8895 198.364 43.7189C196.793 44.5186 194.971 44.9185 192.896 44.9185ZM220.317 44.874C218.924 44.874 217.634 44.6075 216.449 44.0743C215.263 43.5115 214.285 42.7562 213.515 41.8084C212.744 40.8606 212.27 39.8239 212.092 38.6983V28.0796C212.27 26.954 212.744 25.947 213.515 25.0584C214.315 24.1698 215.308 23.4885 216.493 23.0146C217.679 22.5111 218.953 22.2593 220.317 22.2593C222.421 22.2593 224.273 22.748 225.873 23.7255C227.474 24.6733 228.719 26.0062 229.607 27.7242C230.526 29.4421 230.986 31.397 230.986 33.5889C230.986 35.7511 230.526 37.6912 229.607 39.4092C228.719 41.0975 227.474 42.4304 225.873 43.4079C224.273 44.3853 222.421 44.874 220.317 44.874ZM207.38 44.4297V12.0405H215.115V28.0352L213.826 33.2779L214.937 38.6094V44.4297H207.38ZM218.938 37.9874C219.768 37.9874 220.494 37.7949 221.117 37.4098C221.769 37.0248 222.273 36.5064 222.628 35.8548C222.984 35.1735 223.162 34.4034 223.162 33.5445C223.162 32.7151 222.984 31.9746 222.628 31.323C222.273 30.6417 221.769 30.1086 221.117 29.7235C220.465 29.3384 219.724 29.1459 218.894 29.1459C218.064 29.1459 217.323 29.3384 216.671 29.7235C216.049 30.1086 215.56 30.6269 215.204 31.2785C214.849 31.9302 214.671 32.6855 214.671 33.5445C214.671 34.4331 214.849 35.218 215.204 35.8992C215.56 36.5509 216.064 37.0692 216.716 37.4543C217.368 37.8097 218.109 37.9874 218.938 37.9874Z" fill="white"/>
<path fill-rule="evenodd" clip-rule="evenodd" d="M12.4778 2.34893L12.5126 2.31406L24.9555 14.7498L19.3889 20.3132L16.2076 17.1336V24.9917V25.9174V32.8595H7.87226V44.4298H0V32.8595V31.4711V24.9917H8.33533V17.5459L5.56656 20.3132L2.7767e-05 14.7498L12.4428 2.31406L12.4778 2.34893Z" fill="url(#paint0_linear_119_48)"/>
<defs>
<linearGradient id="paint0_linear_119_48" x1="12.4778" y1="2.31406" x2="12.4778" y2="44.4298" gradientUnits="userSpaceOnUse">
<stop stop-color="#BE3144"/>
<stop offset="1" stop-color="#872341"/>
</linearGradient>
</defs>
</svg>
