<svg width="196" height="47" viewBox="0 0 196 47" fill="none" xmlns="http://www.w3.org/2000/svg">
<path d="M29.4705 37.2893V26.9974C29.4705 26.1522 29.2201 25.4934 28.7193 25.0211C28.2186 24.5239 27.5801 24.2753 26.8039 24.2753C26.2781 24.2753 25.8024 24.3872 25.3768 24.6109C24.9762 24.8346 24.6632 25.1454 24.4379 25.5431C24.2125 25.9409 24.0998 26.4256 24.0998 26.9974L21.546 25.8042C21.546 24.3375 21.8715 23.082 22.5225 22.0379C23.1734 20.969 24.0623 20.1486 25.189 19.5769C26.3407 18.9802 27.6427 18.6819 29.0949 18.6819C30.4219 18.6819 31.5987 18.9927 32.6253 19.6141C33.6768 20.2108 34.5031 21.0187 35.104 22.0379C35.7049 23.0572 36.0054 24.2132 36.0054 25.5058V37.2893H29.4705ZM17.5649 37.2893V19.0548H24.0998V37.2893H17.5649ZM46.4466 37.8113C45.3199 37.8113 44.2057 37.6621 43.104 37.3638C42.0274 37.0655 41.0133 36.6678 40.0619 36.1706C39.1355 35.6485 38.3467 35.0519 37.6957 34.3807L41.2637 30.7636C41.8646 31.3851 42.5782 31.8699 43.4045 32.2179C44.2558 32.5659 45.1571 32.74 46.1086 32.74C46.6594 32.74 47.0725 32.6654 47.3479 32.5162C47.6484 32.3671 47.7986 32.1558 47.7986 31.8823C47.7986 31.4846 47.5858 31.1862 47.1602 30.9874C46.7596 30.7636 46.2212 30.5772 45.5452 30.428C44.8942 30.254 44.2057 30.0551 43.4796 29.8314C42.7535 29.5828 42.0524 29.2596 41.3764 28.8619C40.7004 28.4641 40.1495 27.9048 39.7239 27.1839C39.3233 26.4629 39.123 25.5431 39.123 24.4245C39.123 23.2561 39.436 22.2368 40.0619 21.3667C40.7129 20.4718 41.6143 19.7757 42.766 19.2785C43.9177 18.7565 45.2698 18.4955 46.8221 18.4955C48.3995 18.4955 49.9018 18.7689 51.329 19.3158C52.7561 19.8379 53.9079 20.6334 54.7842 21.7023L51.1787 25.3194C50.5778 24.6482 49.9143 24.1883 49.1882 23.9397C48.4621 23.6662 47.7986 23.5295 47.1977 23.5295C46.6218 23.5295 46.2087 23.6165 45.9583 23.7905C45.708 23.9397 45.5828 24.151 45.5828 24.4245C45.5828 24.7476 45.7831 25.0087 46.1837 25.2075C46.6093 25.4064 47.1476 25.5929 47.7986 25.7669C48.4746 25.916 49.1632 26.1149 49.8643 26.3635C50.5904 26.6121 51.2789 26.9601 51.9299 27.4076C52.6059 27.8302 53.1442 28.402 53.5448 29.1229C53.9705 29.8438 54.1833 30.7761 54.1833 31.9196C54.1833 33.7343 53.4822 35.1762 52.0801 36.2452C50.678 37.2893 48.8001 37.8113 46.4466 37.8113ZM68.068 37.6621C66.8912 37.6621 65.8021 37.4508 64.8005 37.0282C63.799 36.6056 62.9728 36.0338 62.3218 35.3129C61.6708 34.5671 61.2702 33.7095 61.12 32.74V23.8651C61.2702 22.8956 61.6708 22.0255 62.3218 21.2549C62.9978 20.4594 63.8241 19.8379 64.8005 19.3904C65.8021 18.9181 66.8912 18.6819 68.068 18.6819C69.8457 18.6819 71.4106 19.0921 72.7626 19.9125C74.1147 20.708 75.1662 21.8266 75.9174 23.2685C76.6936 24.7103 77.0816 26.3511 77.0816 28.1907C77.0816 30.0054 76.6936 31.6337 75.9174 33.0756C75.1662 34.4926 74.1147 35.6112 72.7626 36.4316C71.4106 37.252 69.8457 37.6621 68.068 37.6621ZM57.1389 45.0081V19.0548H63.6738V23.6414L62.5847 28.0415L63.5236 32.4789V45.0081H57.1389ZM66.8286 31.8823C67.5547 31.8823 68.1932 31.7207 68.744 31.3976C69.2949 31.0744 69.7205 30.6393 70.021 30.0924C70.3214 29.5207 70.4716 28.8743 70.4716 28.1534C70.4716 27.4325 70.3214 26.7985 70.021 26.2516C69.7205 25.7047 69.2949 25.2697 68.744 24.9465C68.1932 24.6233 67.5672 24.4617 66.8662 24.4617C66.1902 24.4617 65.5767 24.6233 65.0259 24.9465C64.4751 25.2448 64.0494 25.6799 63.749 26.2516C63.4485 26.7985 63.2983 27.4325 63.2983 28.1534C63.2983 28.8743 63.4485 29.5207 63.749 30.0924C64.0494 30.6393 64.4625 31.0744 64.9883 31.3976C65.5392 31.7207 66.1526 31.8823 66.8286 31.8823ZM79.731 37.2893V19.0548H86.3034V37.2893H79.731ZM82.9984 16.9293C82.0219 16.9293 81.2082 16.6061 80.5572 15.9598C79.9062 15.2886 79.5807 14.4558 79.5807 13.4614C79.5807 12.4919 79.9062 11.6715 80.5572 11.0003C81.2082 10.3291 82.0219 9.99352 82.9984 9.99352C84.025 9.99352 84.8512 10.3291 85.4772 11.0003C86.1282 11.6715 86.4537 12.4919 86.4537 13.4614C86.4537 14.4558 86.1282 15.2886 85.4772 15.9598C84.8512 16.6061 84.025 16.9293 82.9984 16.9293ZM90.1115 37.2893V19.0548H96.6464V37.2893H90.1115ZM96.6464 27.3703L93.7166 24.9092C94.4431 22.8459 95.4071 21.2922 96.6089 20.2481C97.8107 19.204 99.3756 18.6819 101.303 18.6819C102.18 18.6819 102.931 18.7938 103.557 19.0175C104.208 19.2413 104.759 19.5893 105.209 20.0616L101.416 25.0957C101.216 24.8719 100.928 24.6979 100.552 24.5736C100.202 24.4245 99.8012 24.3499 99.3505 24.3499C98.4992 24.3499 97.8357 24.6109 97.36 25.133C96.8843 25.6301 96.6464 26.3759 96.6464 27.3703ZM115.269 37.6994C113.216 37.6994 111.4 37.3017 109.823 36.5062C108.246 35.6858 107.006 34.5547 106.105 33.1129C105.204 31.671 104.753 30.0178 104.753 28.1534C104.753 26.3138 105.191 24.6855 106.067 23.2685C106.944 21.8266 108.133 20.6955 109.635 19.8752C111.163 19.0299 112.878 18.6073 114.781 18.6073C116.633 18.6073 118.273 19.0051 119.701 19.8006C121.153 20.5712 122.279 21.6526 123.081 23.0448C123.907 24.412 124.32 25.9782 124.32 27.7432C124.32 28.1161 124.295 28.5014 124.245 28.8992C124.22 29.2721 124.145 29.7071 124.02 30.2043L107.833 30.2789V26.1025L121.428 25.9906L118.499 27.8178C118.474 26.7985 118.323 25.9657 118.048 25.3194C117.773 24.6482 117.372 24.1386 116.846 23.7905C116.32 23.4425 115.657 23.2685 114.856 23.2685C114.029 23.2685 113.316 23.4674 112.715 23.8651C112.114 24.2629 111.651 24.8222 111.325 25.5431C111 26.2641 110.837 27.1341 110.837 28.1534C110.837 29.1975 111.012 30.0924 111.363 30.8382C111.713 31.5591 112.214 32.106 112.865 32.4789C113.516 32.8518 114.317 33.0383 115.269 33.0383C116.17 33.0383 116.959 32.8891 117.635 32.5908C118.336 32.2925 118.962 31.8326 119.513 31.2111L122.93 34.6044C122.029 35.6237 120.927 36.3943 119.625 36.9164C118.348 37.4384 116.896 37.6994 115.269 37.6994ZM127.239 37.2893V10.8512H133.962V37.2893H127.239ZM143.539 37.2893V10.8512H150.261V37.2893H143.539ZM131.07 26.5499V20.9566H145.98V26.5499H131.07ZM162.965 37.6994C161.237 37.6994 159.697 37.3638 158.345 36.6926C157.018 35.9966 155.967 35.0395 155.191 33.8214C154.439 32.5784 154.064 31.1738 154.064 29.6077V19.0548H160.599V29.6077C160.599 30.1049 160.699 30.5399 160.899 30.9128C161.1 31.2857 161.375 31.5716 161.725 31.7704C162.076 31.9693 162.489 32.0688 162.965 32.0688C163.666 32.0688 164.229 31.845 164.655 31.3976C165.106 30.9501 165.331 30.3535 165.331 29.6077V19.0548H171.866V29.6077C171.866 31.1987 171.49 32.6032 170.739 33.8214C169.988 35.0395 168.936 35.9966 167.584 36.6926C166.257 37.3638 164.717 37.6994 162.965 37.6994ZM186.13 37.6621C184.954 37.6621 183.864 37.4384 182.863 36.9909C181.861 36.5186 181.035 35.8847 180.384 35.0892C179.733 34.2937 179.333 33.4236 179.182 32.4789V23.5668C179.333 22.6221 179.733 21.7769 180.384 21.0311C181.06 20.2854 181.899 19.7136 182.901 19.3158C183.902 18.8932 184.979 18.6819 186.13 18.6819C187.908 18.6819 189.473 19.0921 190.825 19.9125C192.177 20.708 193.229 21.8266 193.979 23.2685C194.756 24.7103 195.144 26.3511 195.144 28.1907C195.144 30.0054 194.756 31.6337 193.979 33.0756C193.229 34.4926 192.177 35.6112 190.825 36.4316C189.473 37.252 187.908 37.6621 186.13 37.6621ZM175.201 37.2893V10.1054H181.736V23.5295L180.647 27.9296L181.586 32.4044V37.2893H175.201ZM184.966 31.8823C185.667 31.8823 186.281 31.7207 186.806 31.3976C187.357 31.0744 187.783 30.6393 188.083 30.0924C188.384 29.5207 188.534 28.8743 188.534 28.1534C188.534 27.4573 188.384 26.8358 188.083 26.2889C187.783 25.7172 187.357 25.2697 186.806 24.9465C186.256 24.6233 185.63 24.4617 184.929 24.4617C184.228 24.4617 183.602 24.6233 183.051 24.9465C182.525 25.2697 182.112 25.7047 181.811 26.2516C181.511 26.7985 181.361 27.4325 181.361 28.1534C181.361 28.8992 181.511 29.5579 181.811 30.1297C182.112 30.6766 182.537 31.1117 183.088 31.4348C183.639 31.7332 184.265 31.8823 184.966 31.8823Z" fill="white"/>
<path fill-rule="evenodd" clip-rule="evenodd" d="M10.5416 1.97141L10.571 1.94215L21.0831 12.3793L16.3803 17.0485L13.6926 14.38V20.9752V21.7521V27.5785H6.6507V37.2893H0V27.5785V26.4132V20.9752H7.04192V14.726L4.70279 17.0485L2.34583e-05 12.3793L10.5121 1.94215L10.5416 1.97141Z" fill="url(#paint0_linear_127_18)"/>
<defs>
<linearGradient id="paint0_linear_127_18" x1="10.5416" y1="1.94215" x2="10.5416" y2="37.2893" gradientUnits="userSpaceOnUse">
<stop stop-color="#BE3144"/>
<stop offset="1" stop-color="#872341"/>
</linearGradient>
</defs>
</svg>
