<svg width="36" height="34" viewBox="0 0 36 34" fill="none" xmlns="http://www.w3.org/2000/svg">
<path d="M35.9723 13.6146C36.1521 12.7237 35.4327 11.6546 34.5334 11.6546L24.2813 10.2292L19.6049 0.963868C19.425 0.607509 19.2452 0.42933 18.8854 0.251151C17.9861 -0.283387 16.907 0.0729716 16.3674 0.963868L11.8708 10.2292L1.61875 11.6546C1.07917 11.6546 0.719445 11.8328 0.539584 12.1892C-0.179861 12.9019 -0.179861 13.971 0.539584 14.6837L7.9139 21.8108L6.11528 31.9671C6.11528 32.3234 6.11528 32.6798 6.29514 33.0361C6.83473 33.927 7.9139 34.2834 8.8132 33.7489L17.9861 28.938L27.1591 33.7489C27.3389 33.927 27.6986 33.927 28.0584 33.927C28.2382 33.927 28.2382 33.927 28.4181 33.927C29.3174 33.7489 30.0368 32.858 29.857 31.7889L28.0584 21.6327L35.4327 14.5055C35.7924 14.3273 35.9723 13.971 35.9723 13.6146Z" fill="#09122C"/>
</svg>
