<svg width="28" height="29" viewBox="0 0 28 29" fill="none" xmlns="http://www.w3.org/2000/svg">
<path d="M3.5 14.5H4.66667M14 3.625V4.83333M23.3333 14.5H24.5M6.53333 6.76667L7.35 7.6125M21.4667 6.76667L20.65 7.6125M11.3167 20.5417H16.6833M10.5 19.3333C9.52055 18.5725 8.79706 17.5118 8.432 16.3014C8.06695 15.0911 8.07885 13.7924 8.46601 12.5895C8.85318 11.3865 9.59597 10.3402 10.5892 9.59875C11.5824 8.85731 12.7757 8.45833 14 8.45833C15.2243 8.45833 16.4176 8.85731 17.4108 9.59875C18.404 10.3402 19.1468 11.3865 19.534 12.5895C19.9211 13.7924 19.933 15.0911 19.568 16.3014C19.2029 17.5118 18.4795 18.5725 17.5 19.3333C17.0445 19.8003 16.7015 20.3718 16.4988 21.0016C16.2962 21.6313 16.2395 22.3017 16.3333 22.9583C16.3333 23.5993 16.0875 24.214 15.6499 24.6672C15.2123 25.1204 14.6188 25.375 14 25.375C13.3812 25.375 12.7877 25.1204 12.3501 24.6672C11.9125 24.214 11.6667 23.5993 11.6667 22.9583C11.7605 22.3017 11.7038 21.6313 11.5011 21.0016C11.2985 20.3718 10.9555 19.8003 10.5 19.3333Z" stroke="#737373" stroke-width="1.83333" stroke-linecap="round" stroke-linejoin="round"/>
</svg>
