<svg width="48" height="48" viewBox="0 0 48 48" fill="none" xmlns="http://www.w3.org/2000/svg">
<path d="M34.0001 26.0002L26.0001 44.0002C24.4088 44.0002 22.8826 43.3681 21.7574 42.2429C20.6322 41.1177 20.0001 39.5915 20.0001 38.0002V30.0002H8.68006C8.10025 30.0068 7.52593 29.8872 6.99692 29.6498C6.4679 29.4124 5.99683 29.0628 5.61634 28.6252C5.23586 28.1876 4.95505 27.6726 4.79338 27.1157C4.63171 26.5589 4.59305 25.9735 4.68006 25.4002L7.44006 7.40023C7.58471 6.44642 8.06919 5.57702 8.80425 4.95222C9.53931 4.32742 10.4754 3.98933 11.4401 4.00023H34.0001M34.0001 26.0002V4.00023M34.0001 26.0002H39.3401C40.472 26.0203 41.5719 25.624 42.4309 24.8866C43.2899 24.1492 43.8483 23.1221 44.0001 22.0002V8.00023C43.8483 6.87835 43.2899 5.85124 42.4309 5.11387C41.5719 4.3765 40.472 3.98022 39.3401 4.00023H34.0001" stroke="white" stroke-width="4" stroke-linecap="round" stroke-linejoin="round"/>
</svg>
