<svg width="19" height="19" viewBox="0 0 19 19" fill="none" xmlns="http://www.w3.org/2000/svg">
<path d="M17.3532 5.24083C17.2729 5.04739 17.1191 4.89367 16.9257 4.81333C16.8305 4.77277 16.7283 4.75125 16.6249 4.75H12.6665C12.4566 4.75 12.2552 4.83341 12.1067 4.98187C11.9583 5.13034 11.8749 5.3317 11.8749 5.54167C11.8749 5.75163 11.9583 5.95299 12.1067 6.10146C12.2552 6.24993 12.4566 6.33333 12.6665 6.33333H14.717L10.2915 10.7588L7.68695 8.14625C7.61336 8.07205 7.5258 8.01315 7.42933 7.97296C7.33286 7.93277 7.22938 7.91208 7.12487 7.91208C7.02036 7.91208 6.91689 7.93277 6.82041 7.97296C6.72394 8.01315 6.63638 8.07205 6.56279 8.14625L1.81279 12.8963C1.73859 12.9698 1.67969 13.0574 1.6395 13.1539C1.59931 13.2503 1.57861 13.3538 1.57861 13.4583C1.57861 13.5628 1.59931 13.6663 1.6395 13.7628C1.67969 13.8593 1.73859 13.9468 1.81279 14.0204C1.88638 14.0946 1.97394 14.1535 2.07041 14.1937C2.16689 14.2339 2.27036 14.2546 2.37487 14.2546C2.47938 14.2546 2.58285 14.2339 2.67933 14.1937C2.7758 14.1535 2.86336 14.0946 2.93695 14.0204L7.12487 9.82458L9.72945 12.4371C9.80305 12.5113 9.89061 12.5702 9.98708 12.6104C10.0836 12.6506 10.187 12.6713 10.2915 12.6713C10.396 12.6713 10.4995 12.6506 10.596 12.6104C10.6925 12.5702 10.78 12.5113 10.8536 12.4371L15.8332 7.44958V9.5C15.8332 9.70996 15.9166 9.91133 16.0651 10.0598C16.2135 10.2083 16.4149 10.2917 16.6249 10.2917C16.8348 10.2917 17.0362 10.2083 17.1847 10.0598C17.3331 9.91133 17.4165 9.70996 17.4165 9.5V5.54167C17.4153 5.43821 17.3938 5.33601 17.3532 5.24083Z" fill="url(#paint0_linear_19_325)"/>
<defs>
<linearGradient id="paint0_linear_19_325" x1="9.49758" y1="4.75" x2="9.49758" y2="14.2546" gradientUnits="userSpaceOnUse">
<stop stop-color="#BE3144"/>
<stop offset="1" stop-color="#872341"/>
</linearGradient>
</defs>
</svg>
