<svg width="24" height="25" viewBox="0 0 24 25" fill="none" xmlns="http://www.w3.org/2000/svg">
<path d="M1.5 12.5H2.66667M12 1.625V2.83333M21.3333 12.5H22.5M4.53333 4.76667L5.35 5.6125M19.4667 4.76667L18.65 5.6125M9.31667 18.5417H14.6833M8.5 17.3333C7.52055 16.5725 6.79706 15.5118 6.432 14.3014C6.06695 13.0911 6.07885 11.7924 6.46601 10.5895C6.85318 9.38649 7.59597 8.34018 8.58919 7.59875C9.58241 6.85731 10.7757 6.45833 12 6.45833C13.2243 6.45833 14.4176 6.85731 15.4108 7.59875C16.404 8.34018 17.1468 9.38649 17.534 10.5895C17.9211 11.7924 17.933 13.0911 17.568 14.3014C17.2029 15.5118 16.4795 16.5725 15.5 17.3333C15.0445 17.8003 14.7015 18.3718 14.4988 19.0016C14.2962 19.6313 14.2395 20.3017 14.3333 20.9583C14.3333 21.5993 14.0875 22.214 13.6499 22.6672C13.2123 23.1204 12.6188 23.375 12 23.375C11.3812 23.375 10.7877 23.1204 10.3501 22.6672C9.9125 22.214 9.66667 21.5993 9.66667 20.9583C9.76053 20.3017 9.70383 19.6313 9.50115 19.0016C9.29847 18.3718 8.9555 17.8003 8.5 17.3333Z" stroke="white" stroke-width="1.83333" stroke-linecap="round" stroke-linejoin="round"/>
</svg>
