<svg width="25" height="21" viewBox="0 0 25 21" fill="none" xmlns="http://www.w3.org/2000/svg">
<path d="M0.581395 19.817C1.09819 20.6057 2.00258 21 2.77778 21C3.16537 21 3.42377 21 3.81137 20.7371L23.1912 13.1134C24.354 12.719 25 11.6675 25 10.4845C25 9.3015 24.354 8.24995 23.1912 7.85562L3.81137 0.231873C2.64858 -0.293902 1.35659 0.10043 0.581395 1.15198C-0.193798 2.07209 -0.193798 3.51797 0.581395 4.56952L4.71576 10.4845L0.581395 16.3995C-0.193798 17.451 -0.193798 18.8969 0.581395 19.817ZM2.64858 17.9768L7.04134 11.7989H15.0517C15.8269 11.7989 16.3437 11.2732 16.3437 10.4845C16.3437 9.69583 15.8269 9.17005 15.0517 9.17005H7.04134L2.64858 2.99219C2.64858 2.99219 2.51938 2.86075 2.64858 2.72931C2.64858 2.59786 2.77778 2.59786 2.77778 2.59786H2.90698L22.1576 10.2216C22.1576 10.2216 22.2868 10.2216 22.2868 10.4845C22.2868 10.7474 22.1576 10.7474 22.1576 10.7474L2.90698 18.3711C2.90698 18.3711 2.77778 18.5026 2.64858 18.2397C2.51938 18.1082 2.64858 17.9768 2.64858 17.9768Z" fill="#BE3144"/>
</svg>
