<svg width="20" height="18" viewBox="0 0 20 18" fill="none" xmlns="http://www.w3.org/2000/svg">
<path d="M6.49988 3.5C6.49988 3.04037 6.59041 2.58525 6.7663 2.16061C6.94219 1.73597 7.2 1.35013 7.525 1.02513C7.85001 0.700121 8.23584 0.442313 8.66048 0.266422C9.08512 0.0905301 9.54025 0 9.99988 0C10.4595 0 10.9146 0.0905301 11.3393 0.266422C11.7639 0.442313 12.1497 0.700121 12.4747 1.02513C12.7998 1.35013 13.0576 1.73597 13.2335 2.16061C13.4093 2.58525 13.4999 3.04037 13.4999 3.5C13.4999 4.42826 13.1311 5.3185 12.4747 5.97487C11.8184 6.63125 10.9281 7 9.99988 7C9.07162 7 8.18138 6.63125 7.525 5.97487C6.86862 5.3185 6.49988 4.42826 6.49988 3.5ZM2.49988 8C3.16292 8 3.7988 7.73661 4.26764 7.26777C4.73648 6.79893 4.99988 6.16304 4.99988 5.5C4.99988 4.83696 4.73648 4.20107 4.26764 3.73223C3.7988 3.26339 3.16292 3 2.49988 3C1.83683 3 1.20095 3.26339 0.732108 3.73223C0.263267 4.20107 -0.000124672 4.83696 -0.000124672 5.5C-0.000124672 6.16304 0.263267 6.79893 0.732108 7.26777C1.20095 7.73661 1.83683 8 2.49988 8ZM19.9999 5.5C19.9999 6.16304 19.7365 6.79893 19.2676 7.26777C18.7988 7.73661 18.1629 8 17.4999 8C16.8368 8 16.2009 7.73661 15.7321 7.26777C15.2633 6.79893 14.9999 6.16304 14.9999 5.5C14.9999 4.83696 15.2633 4.20107 15.7321 3.73223C16.2009 3.26339 16.8368 3 17.4999 3C18.1629 3 18.7988 3.26339 19.2676 3.73223C19.7365 4.20107 19.9999 4.83696 19.9999 5.5ZM8.49988 9C7.11988 9 5.99988 10.12 5.99988 11.5V14C5.99988 15.0609 6.4213 16.0783 7.17145 16.8284C7.92159 17.5786 8.93901 18 9.99988 18C11.0607 18 12.0782 17.5786 12.8283 16.8284C13.5784 16.0783 13.9999 15.0609 13.9999 14V11.5C13.9999 10.12 12.8799 9 11.4999 9H8.49988ZM3.99988 11.5C3.99988 10.922 4.10788 10.37 4.30788 9.864L1.84588 10.524C1.2058 10.6956 0.660029 11.1143 0.328508 11.6881C-0.00301364 12.2618 -0.0931614 12.9438 0.0778754 13.584L0.465875 15.034C0.601869 15.5415 0.836498 16.0172 1.15636 16.4339C1.47622 16.8507 1.87506 17.2004 2.33008 17.463C2.7851 17.7256 3.2874 17.896 3.80829 17.9645C4.32917 18.0329 4.85845 17.9981 5.36588 17.862L5.39988 17.852C4.49554 16.7721 3.99994 15.4085 3.99988 14V11.5ZM15.9999 14C15.9999 15.466 15.4739 16.81 14.5999 17.854L14.6319 17.862C15.6564 18.1363 16.7479 17.9925 17.6664 17.4621C18.5849 16.9318 19.2552 16.0584 19.5299 15.034L19.9179 13.584C20.0889 12.9438 19.9988 12.2618 19.6672 11.6881C19.3357 11.1143 18.79 10.6956 18.1499 10.524L15.6939 9.864C15.8919 10.372 15.9999 10.924 15.9999 11.5V14Z" fill="white"/>
</svg>
